<svg data-v-423bf9ae="" xmlns="http://www.w3.org/2000/svg" viewBox="0 0 344.2104760469299 60" class="font"><!----><!----><!----><g data-v-423bf9ae="" id="3ee98983-de5c-4df8-8b02-dd200dcdefd5" fill="#0D3354" transform="matrix(4.5112778073122,0,0,4.5112778073122,4.601497969554373,-26.977441850609907)"><path d="M6.16 17.88L6.16 17.88L6.16 17.88Q6.19 18.44 6.35 18.67L6.35 18.67L6.35 18.67Q6.51 18.90 6.94 19.04L6.94 19.04L6.93 19.03L6.93 19.03Q7.29 19.18 7.63 19.21L7.63 19.21L7.63 19.21Q7.97 19.24 8.36 19.24L8.36 19.24L8.36 19.24Q8.88 19.24 9.04 19.07L9.04 19.07L9.04 19.07Q9.21 18.90 9.21 18.45L9.21 18.45L9.21 18.45Q9.25 17.11 9.31 15.62L9.31 15.62L9.31 15.62Q9.37 14.13 9.44 12.70L9.44 12.70L9.44 12.70Q9.52 11.27 9.61 10.00L9.61 10.00L9.61 10.00Q9.70 8.72 9.81 7.80L9.81 7.80L9.81 7.81L9.81 7.81Q9.83 7.74 9.83 7.67L9.83 7.67L9.83 7.67Q9.83 7.59 9.83 7.52L9.83 7.52L9.83 7.52Q9.83 7.15 9.67 6.92L9.67 6.92L9.67 6.92Q9.52 6.69 9.09 6.54L9.09 6.54L8.83 6.47L8.83 6.47Q8.34 6.30 7.69 6.14L7.69 6.14L7.69 6.14Q7.04 5.98 6.08 5.98L6.08 5.98L6.08 5.98Q5.50 5.98 5.17 6.22L5.17 6.22L5.17 6.22Q4.84 6.47 4.61 6.83L4.61 6.83L4.61 6.83Q3.98 7.81 3.23 9.13L3.23 9.13L3.23 9.13Q2.48 10.44 1.73 11.84L1.73 11.84L1.73 11.84Q0.98 13.24 0.30 14.59L0.30 14.59L0.30 14.59Q-0.38 15.95-0.85 17.01L-0.85 17.01L-0.85 17.01Q-0.95 17.25-0.99 17.43L-0.99 17.43L-0.99 17.43Q-1.02 17.61-1.02 17.77L-1.02 17.77L-1.02 17.77Q-1.02 17.99-0.91 18.16L-0.91 18.16L-0.91 18.16Q-0.80 18.34-0.62 18.49L-0.62 18.49L-0.62 18.49Q-0.45 18.63-0.22 18.76L-0.22 18.76L-0.22 18.76Q0 18.89 0.22 19.00L0.22 19.00L0.39 19.08L0.39 19.08Q0.66 19.19 0.88 19.19L0.88 19.19L0.88 19.19Q1.13 19.19 1.34 18.94L1.34 18.94L1.34 18.94Q1.55 18.69 1.76 18.30L1.76 18.30L1.76 18.30Q1.97 17.92 2.18 17.46L2.18 17.46L2.18 17.46Q2.38 17.01 2.60 16.62L2.60 16.62L2.60 16.62Q3.30 16.44 4.22 16.29L4.22 16.29L4.22 16.29Q5.14 16.14 6.09 16.00L6.09 16.00L6.12 16.28L6.12 16.28Q6.12 17.19 6.16 17.88ZM6.33 9.93L6.33 9.93L6.33 9.93Q6.27 10.68 6.23 11.47L6.23 11.47L6.23 11.47Q6.19 12.25 6.15 13.05L6.15 13.05L6.15 13.05Q5.71 13.08 5.29 13.12L5.29 13.12L5.29 13.12Q4.87 13.16 4.44 13.23L4.44 13.23L4.44 13.23Q4.93 12.33 5.41 11.50L5.41 11.50L5.41 11.50Q5.89 10.67 6.33 9.93ZM16.16 8.30L16.16 8.30L16.16 8.30Q16.11 7.73 15.94 7.43L15.94 7.43L15.94 7.43Q15.76 7.13 15.29 6.93L15.29 6.93L15.30 6.93L15.30 6.93Q15.06 6.80 14.77 6.68L14.77 6.68L14.77 6.68Q14.48 6.55 14.17 6.45L14.17 6.45L14.17 6.45Q13.86 6.34 13.58 6.27L13.58 6.27L13.58 6.27Q13.30 6.20 13.10 6.20L13.10 6.20L13.10 6.20Q12.47 6.20 12.21 6.90L12.21 6.90L12.21 6.90Q11.97 7.57 11.70 8.48L11.70 8.48L11.70 8.48Q11.44 9.39 11.16 10.40L11.16 10.40L11.16 10.40Q10.88 11.41 10.61 12.44L10.61 12.44L10.61 12.44Q10.35 13.47 10.12 14.38L10.12 14.38L10.12 14.38Q9.88 15.30 9.72 16.04L9.72 16.04L9.72 16.04Q9.55 16.79 9.48 17.19L9.48 17.19L9.49 17.18L9.49 17.18Q9.44 17.46 9.44 17.68L9.44 17.68L9.44 17.68Q9.44 17.99 9.55 18.19L9.55 18.19L9.55 18.19Q9.67 18.38 9.94 18.55L9.94 18.55L9.93 18.54L9.93 18.54Q10.19 18.75 10.51 18.86L10.51 18.86L10.51 18.86Q10.84 18.97 11.16 19.07L11.16 19.07L11.31 19.11L11.31 19.11Q11.45 19.14 11.56 19.16L11.56 19.16L11.56 19.16Q11.66 19.18 11.75 19.18L11.75 19.18L11.75 19.18Q12.01 19.18 12.14 19.04L12.14 19.04L12.14 19.04Q12.26 18.90 12.36 18.62L12.36 18.62L12.36 18.62Q12.47 18.14 12.63 17.53L12.63 17.53L12.63 17.53Q12.80 16.91 12.98 16.23L12.98 16.23L12.98 16.23Q13.17 15.54 13.38 14.79L13.38 14.79L13.38 14.79Q13.59 14.04 13.80 13.29L13.80 13.29L13.80 13.29Q13.94 14.21 14.09 15.09L14.09 15.09L14.09 15.09Q14.24 15.97 14.43 16.70L14.43 16.70L14.43 16.70Q14.63 17.42 14.92 17.93L14.92 17.93L14.92 17.93Q15.20 18.45 15.64 18.66L15.64 18.66L15.64 18.66Q16.04 18.82 16.48 18.97L16.48 18.97L16.48 18.97Q16.93 19.12 17.37 19.12L17.37 19.12L17.37 19.12Q18.06 19.12 18.20 18.45L18.20 18.45L18.19 18.47L18.19 18.47Q18.37 17.72 18.60 16.86L18.60 16.86L18.60 16.86Q18.83 16.00 19.08 15.08L19.08 15.08L19.08 15.08Q19.32 14.15 19.58 13.22L19.58 13.22L19.58 13.22Q19.84 12.28 20.10 11.38L20.10 11.38L20.10 11.38Q20.36 10.49 20.59 9.67L20.59 9.67L20.59 9.67Q20.83 8.86 21.04 8.20L21.04 8.20L21.04 8.20Q21.10 8.06 21.12 7.94L21.12 7.94L21.12 7.94Q21.14 7.81 21.14 7.70L21.14 7.70L21.14 7.70Q21.14 7.38 20.92 7.14L20.92 7.14L20.92 7.14Q20.69 6.90 20.38 6.73L20.38 6.73L20.38 6.73Q20.08 6.55 19.75 6.44L19.75 6.44L19.75 6.44Q19.43 6.33 19.22 6.27L19.22 6.27L19.22 6.27Q19.10 6.24 19.00 6.22L19.00 6.22L19.00 6.22Q18.90 6.20 18.83 6.20L18.83 6.20L18.83 6.20Q18.21 6.20 17.99 6.89L17.99 6.89L17.99 6.89Q17.63 7.99 17.24 9.31L17.24 9.31L17.24 9.31Q16.86 10.63 16.49 12.04L16.49 12.04L16.49 12.04Q16.44 11.48 16.38 10.93L16.38 10.93L16.38 10.93Q16.32 10.37 16.28 9.88L16.28 9.88L16.28 9.88Q16.24 9.39 16.20 8.99L16.20 8.99L16.20 8.99Q16.17 8.58 16.16 8.30ZM24.82 7.06L24.84 7.07L24.84 7.07Q24.63 6.92 24.36 6.77L24.36 6.77L24.36 6.77Q24.09 6.62 23.81 6.50L23.81 6.50L23.81 6.50Q23.52 6.38 23.26 6.31L23.26 6.31L23.26 6.31Q23.00 6.23 22.82 6.23L22.82 6.23L22.82 6.23Q22.54 6.23 22.37 6.38L22.37 6.38L22.37 6.38Q22.20 6.52 22.06 6.89L22.06 6.89L22.06 6.89Q21.87 7.49 21.63 8.34L21.63 8.34L21.63 8.34Q21.39 9.20 21.14 10.17L21.14 10.17L21.14 10.17Q20.89 11.14 20.63 12.17L20.63 12.17L20.63 12.17Q20.37 13.20 20.15 14.15L20.15 14.15L20.15 14.15Q19.92 15.11 19.75 15.93L19.75 15.93L19.75 15.93Q19.59 16.74 19.50 17.29L19.50 17.29L19.50 17.29Q19.47 17.42 19.46 17.51L19.46 17.51L19.46 17.51Q19.45 17.60 19.45 17.74L19.45 17.74L19.45 17.74Q19.45 18.06 19.61 18.28L19.61 18.28L19.61 18.28Q19.77 18.51 20.03 18.67L20.03 18.67L20.03 18.67Q20.30 18.83 20.62 18.94L20.62 18.94L20.62 18.94Q20.94 19.05 21.28 19.17L21.28 19.17L21.28 19.17Q21.41 19.21 21.50 19.22L21.50 19.22L21.50 19.22Q21.60 19.24 21.67 19.24L21.67 19.24L21.67 19.24Q21.95 19.24 22.07 19.10L22.07 19.10L22.07 19.10Q22.19 18.97 22.29 18.66L22.29 18.66L22.29 18.66Q22.47 17.96 22.70 17.09L22.70 17.09L22.70 17.09Q22.93 16.21 23.19 15.27L23.19 15.27L23.19 15.27Q23.45 14.32 23.72 13.34L23.72 13.34L23.72 13.34Q24.00 12.36 24.27 11.45L24.27 11.45L24.27 11.45Q24.54 10.53 24.79 9.72L24.79 9.72L24.79 9.72Q25.05 8.92 25.26 8.32L25.26 8.32L25.26 8.32Q25.34 8.05 25.34 7.84L25.34 7.84L25.34 7.84Q25.34 7.60 25.22 7.43L25.22 7.43L25.22 7.43Q25.10 7.25 24.82 7.06L24.82 7.06ZM28.42 16.65L28.42 16.65L28.42 16.65Q28.49 17.12 28.64 17.39L28.64 17.39L28.64 17.39Q28.80 17.67 29.03 17.82L29.03 17.82L29.03 17.82Q29.26 17.98 29.57 18.06L29.57 18.06L29.57 18.06Q29.88 18.14 30.25 18.23L30.25 18.23L30.25 18.23Q30.39 18.27 30.59 18.27L30.59 18.27L30.59 18.27Q30.76 18.27 30.86 18.23L30.86 18.23L30.86 18.23Q30.95 18.20 31.02 18.12L31.02 18.12L31.02 18.12Q31.09 18.05 31.16 17.93L31.16 17.93L31.16 17.93Q31.23 17.81 31.32 17.64L31.32 17.64L31.32 17.64Q31.50 17.25 31.77 16.72L31.77 16.72L31.77 16.72Q32.05 16.20 32.37 15.61L32.37 15.61L32.37 15.61Q32.69 15.02 33.04 14.39L33.04 14.39L33.04 14.39Q33.39 13.76 33.74 13.15L33.74 13.15L33.74 13.15Q33.57 13.78 33.41 14.39L33.41 14.39L33.41 14.39Q33.25 15.01 33.12 15.56L33.12 15.56L33.12 15.56Q33.00 16.11 32.90 16.58L32.90 16.58L32.90 16.58Q32.80 17.04 32.75 17.36L32.75 17.36L32.75 17.35L32.75 17.35Q32.70 17.54 32.70 17.77L32.70 17.77L32.70 17.77Q32.70 18.34 33.29 18.69L33.29 18.69L33.28 18.69L33.28 18.69Q33.42 18.79 33.64 18.89L33.64 18.89L33.64 18.89Q33.87 18.98 34.10 19.06L34.10 19.06L34.10 19.06Q34.34 19.14 34.57 19.19L34.57 19.19L34.57 19.19Q34.79 19.24 34.94 19.24L34.94 19.24L34.94 19.24Q35.29 19.24 35.43 19.07L35.43 19.07L35.43 19.07Q35.56 18.91 35.66 18.63L35.66 18.63L35.66 18.63Q35.80 18.07 36.02 17.26L36.02 17.26L36.02 17.26Q36.23 16.45 36.50 15.51L36.50 15.51L36.50 15.51Q36.76 14.57 37.06 13.56L37.06 13.56L37.06 13.56Q37.35 12.54 37.63 11.59L37.63 11.59L37.63 11.59Q37.91 10.63 38.17 9.77L38.17 9.77L38.17 9.77Q38.43 8.92 38.64 8.29L38.64 8.29L38.64 8.30L38.64 8.30Q38.71 8.15 38.73 8.02L38.73 8.02L38.73 8.02Q38.75 7.88 38.75 7.77L38.75 7.77L38.75 7.77Q38.75 7.42 38.43 7.15L38.43 7.15L38.43 7.15Q38.11 6.89 37.66 6.69L37.66 6.69L37.66 6.69Q37.21 6.50 36.71 6.36L36.71 6.36L36.71 6.36Q36.20 6.23 35.85 6.15L35.85 6.15L35.87 6.15L35.87 6.15Q35.67 6.08 35.50 6.05L35.50 6.05L35.50 6.05Q35.34 6.02 35.18 6.02L35.18 6.02L35.18 6.02Q34.89 6.02 34.66 6.13L34.66 6.13L34.66 6.13Q34.43 6.23 34.22 6.46L34.22 6.46L34.22 6.46Q34.01 6.69 33.79 7.04L33.79 7.04L33.79 7.04Q33.57 7.39 33.29 7.88L33.29 7.88L33.29 7.87L33.29 7.87Q33.03 8.29 32.74 8.76L32.74 8.76L32.74 8.76Q32.45 9.24 32.16 9.74L32.16 9.74L32.16 9.74Q31.88 10.23 31.60 10.73L31.60 10.73L31.60 10.73Q31.32 11.23 31.07 11.69L31.07 11.69L31.07 11.69Q31.04 10.88 31.00 10.33L31.00 10.33L31.00 10.33Q30.97 9.79 30.95 9.43L30.95 9.43L30.95 9.43Q30.93 9.07 30.91 8.88L30.91 8.88L30.91 8.88Q30.90 8.68 30.90 8.55L30.90 8.55L30.90 8.55Q30.90 8.44 30.91 8.37L30.91 8.37L30.91 8.37Q30.88 8.06 30.86 7.82L30.86 7.82L30.86 7.82Q30.83 7.57 30.73 7.38L30.73 7.38L30.73 7.38Q30.63 7.20 30.44 7.04L30.44 7.04L30.44 7.04Q30.24 6.89 29.89 6.75L29.89 6.75L29.90 6.75L29.90 6.75Q29.44 6.55 28.85 6.36L28.85 6.36L28.85 6.36Q28.25 6.17 27.45 6.17L27.45 6.17L27.45 6.17Q27.09 6.17 26.87 6.35L26.87 6.35L26.87 6.35Q26.64 6.52 26.47 6.97L26.47 6.97L26.47 6.97Q26.26 7.57 26.00 8.41L26.00 8.41L26.00 8.41Q25.75 9.25 25.47 10.21L25.47 10.21L25.47 10.21Q25.20 11.17 24.93 12.19L24.93 12.19L24.93 12.19Q24.65 13.20 24.42 14.15L24.42 14.15L24.42 14.15Q24.18 15.11 23.99 15.94L23.99 15.94L23.99 15.94Q23.80 16.77 23.70 17.37L23.70 17.37L23.70 17.36L23.70 17.36Q23.66 17.56 23.66 17.77L23.66 17.77L23.66 17.77Q23.66 18.07 23.88 18.35L23.88 18.35L23.88 18.35Q24.09 18.62 24.43 18.83L24.43 18.83L24.43 18.83Q24.77 19.04 25.16 19.16L25.16 19.16L25.16 19.16Q25.55 19.28 25.90 19.28L25.90 19.28L25.90 19.28Q26.18 19.28 26.34 19.11L26.34 19.11L26.34 19.11Q26.50 18.94 26.61 18.58L26.61 18.58L26.61 18.58Q26.74 18.03 26.90 17.37L26.90 17.37L26.90 17.37Q27.06 16.72 27.25 15.99L27.25 15.99L27.25 15.99Q27.44 15.26 27.66 14.49L27.66 14.49L27.66 14.49Q27.87 13.72 28.11 12.94L28.11 12.94L28.11 12.94Q28.15 13.96 28.23 14.90L28.23 14.90L28.23 14.90Q28.31 15.85 28.42 16.65ZM39.91 6.97L39.73 7.17L37.30 16.49L37.30 16.49Q37.25 16.70 37.25 16.91L37.25 16.91L37.25 16.91Q37.25 17.28 37.37 17.53L37.37 17.53L37.37 17.53Q37.48 17.78 37.67 17.99L37.67 17.99L37.67 17.98L37.67 17.98Q37.91 18.26 38.12 18.47L38.12 18.47L38.12 18.47Q38.32 18.69 38.51 18.85L38.51 18.85L38.51 18.85Q38.71 19.01 38.94 19.10L38.94 19.10L38.94 19.10Q39.17 19.18 39.48 19.18L39.48 19.18L39.48 19.18Q39.75 19.18 40.14 19.08L40.14 19.08L40.12 19.10L40.12 19.10Q41.01 18.90 41.95 18.70L41.95 18.70L41.95 18.70Q42.90 18.49 43.79 18.30L43.79 18.30L43.79 18.30Q44.20 18.21 44.35 18.09L44.35 18.09L44.35 18.09Q44.51 17.96 44.51 17.64L44.51 17.64L44.51 17.64Q44.51 17.28 44.37 16.87L44.37 16.87L44.37 16.87Q44.24 16.46 44.07 16.13L44.07 16.13L44.07 16.14L44.07 16.14Q43.95 15.81 43.71 15.66L43.71 15.66L43.71 15.66Q43.48 15.51 43.11 15.51L43.11 15.51L43.11 15.51Q42.48 15.51 41.91 15.60L41.91 15.60L41.91 15.60Q41.34 15.68 40.81 15.78L40.81 15.78L40.81 15.78Q40.84 15.53 40.95 15.20L40.95 15.20L40.95 15.20Q41.06 14.87 41.17 14.59L41.17 14.59L41.17 14.59Q41.66 14.48 42.17 14.38L42.17 14.38L42.17 14.38Q42.67 14.29 43.20 14.18L43.20 14.18L43.19 14.18L43.19 14.18Q43.55 14.13 43.90 14.08L43.90 14.08L43.90 14.08Q44.24 14.03 44.50 13.94L44.50 13.94L44.50 13.94Q44.76 13.86 44.92 13.71L44.92 13.71L44.92 13.71Q45.08 13.57 45.08 13.33L45.08 13.33L45.08 13.33Q45.08 13.20 45.02 12.99L45.02 12.99L45.04 13.01L45.04 13.01Q44.97 12.71 44.90 12.43L44.90 12.43L44.90 12.43Q44.83 12.14 44.66 11.82L44.66 11.82L44.66 11.83L44.66 11.83Q44.51 11.48 44.27 11.35L44.27 11.35L44.27 11.35Q44.03 11.23 43.62 11.23L43.62 11.23L43.53 11.23L43.53 11.23Q42.91 11.24 42.31 11.31L42.31 11.31L42.31 11.31Q42.50 10.78 42.69 10.24L42.69 10.24L42.69 10.24Q42.87 9.70 43.04 9.24L43.04 9.24L43.04 9.24Q43.90 9.11 44.67 9.02L44.67 9.02L44.67 9.02Q45.44 8.93 46.17 8.86L46.17 8.86L46.17 8.86Q46.63 8.81 46.80 8.65L46.80 8.65L46.80 8.65Q46.97 8.50 46.97 8.12L46.97 8.12L46.97 8.12Q46.97 7.92 46.91 7.74L46.91 7.74L46.93 7.76L46.93 7.76Q46.89 7.52 46.83 7.31L46.83 7.31L46.83 7.31Q46.77 7.10 46.63 6.78L46.63 6.78L46.63 6.79L46.63 6.79Q46.51 6.43 46.26 6.24L46.26 6.24L46.26 6.24Q46.02 6.06 45.57 6.06L45.57 6.06L45.50 6.06L45.50 6.06Q44.76 6.09 44.00 6.19L44.00 6.19L44.00 6.19Q43.25 6.29 42.52 6.41L42.52 6.41L42.52 6.41Q41.80 6.54 41.14 6.69L41.14 6.69L41.14 6.69Q40.47 6.83 39.91 6.97L39.91 6.97ZM57.48 17.88L57.48 17.88L57.48 17.88Q57.51 18.44 57.67 18.67L57.67 18.67L57.67 18.67Q57.83 18.90 58.27 19.04L58.27 19.04L58.25 19.03L58.25 19.03Q58.62 19.18 58.95 19.21L58.95 19.21L58.95 19.21Q59.29 19.24 59.68 19.24L59.68 19.24L59.68 19.24Q60.20 19.24 60.37 19.07L60.37 19.07L60.37 19.07Q60.54 18.90 60.54 18.45L60.54 18.45L60.54 18.45Q60.58 17.11 60.63 15.62L60.63 15.62L60.63 15.62Q60.69 14.13 60.77 12.70L60.77 12.70L60.77 12.70Q60.84 11.27 60.94 10.00L60.94 10.00L60.94 10.00Q61.03 8.72 61.14 7.80L61.14 7.80L61.14 7.81L61.14 7.81Q61.15 7.74 61.15 7.67L61.15 7.67L61.15 7.67Q61.15 7.59 61.15 7.52L61.15 7.52L61.15 7.52Q61.15 7.15 61.00 6.92L61.00 6.92L61.00 6.92Q60.84 6.69 60.41 6.54L60.41 6.54L60.16 6.47L60.16 6.47Q59.67 6.30 59.02 6.14L59.02 6.14L59.02 6.14Q58.37 5.98 57.40 5.98L57.40 5.98L57.40 5.98Q56.83 5.98 56.50 6.22L56.50 6.22L56.50 6.22Q56.17 6.47 55.93 6.83L55.93 6.83L55.93 6.83Q55.30 7.81 54.55 9.13L54.55 9.13L54.55 9.13Q53.80 10.44 53.05 11.84L53.05 11.84L53.05 11.84Q52.30 13.24 51.63 14.59L51.63 14.59L51.63 14.59Q50.95 15.95 50.47 17.01L50.47 17.01L50.47 17.01Q50.37 17.25 50.34 17.43L50.34 17.43L50.34 17.43Q50.30 17.61 50.30 17.77L50.30 17.77L50.30 17.77Q50.30 17.99 50.41 18.16L50.41 18.16L50.41 18.16Q50.53 18.34 50.70 18.49L50.70 18.49L50.70 18.49Q50.88 18.63 51.10 18.76L51.10 18.76L51.10 18.76Q51.32 18.89 51.55 19.00L51.55 19.00L51.72 19.08L51.72 19.08Q51.98 19.19 52.21 19.19L52.21 19.19L52.21 19.19Q52.46 19.19 52.67 18.94L52.67 18.94L52.67 18.94Q52.88 18.69 53.09 18.30L53.09 18.30L53.09 18.30Q53.30 17.92 53.50 17.46L53.50 17.46L53.50 17.46Q53.70 17.01 53.93 16.62L53.93 16.62L53.93 16.62Q54.63 16.44 55.55 16.29L55.55 16.29L55.55 16.29Q56.46 16.14 57.41 16.00L57.41 16.00L57.44 16.28L57.44 16.28Q57.44 17.19 57.48 17.88ZM57.65 9.93L57.65 9.93L57.65 9.93Q57.60 10.68 57.55 11.47L57.55 11.47L57.55 11.47Q57.51 12.25 57.47 13.05L57.47 13.05L57.47 13.05Q57.04 13.08 56.62 13.12L56.62 13.12L56.62 13.12Q56.20 13.16 55.76 13.23L55.76 13.23L55.76 13.23Q56.25 12.33 56.73 11.50L56.73 11.50L56.73 11.50Q57.22 10.67 57.65 9.93ZM67.17 18.28L67.19 18.27L67.19 18.27Q67.59 18.16 67.75 18.05L67.75 18.05L67.75 18.05Q67.90 17.93 67.90 17.68L67.90 17.68L67.90 17.68Q67.90 17.37 67.78 16.92L67.78 16.92L67.78 16.92Q67.66 16.46 67.44 16.10L67.44 16.10L67.45 16.11L67.45 16.11Q67.28 15.78 67.07 15.64L67.07 15.64L67.07 15.64Q66.85 15.50 66.50 15.50L66.50 15.50L66.50 15.50Q65.88 15.50 65.37 15.58L65.37 15.58L65.37 15.58Q64.86 15.67 64.33 15.75L64.33 15.75L64.33 15.75Q64.62 14.76 64.95 13.71L64.95 13.71L64.95 13.71Q65.27 12.67 65.59 11.66L65.59 11.66L65.59 11.66Q65.91 10.65 66.23 9.74L66.23 9.74L66.23 9.74Q66.56 8.82 66.84 8.06L66.84 8.06L66.82 8.08L66.82 8.08Q66.89 7.92 66.92 7.82L66.92 7.82L66.92 7.82Q66.95 7.71 66.95 7.60L66.95 7.60L66.95 7.60Q66.95 7.35 66.67 7.08L66.67 7.08L66.67 7.08Q66.40 6.80 66.01 6.57L66.01 6.57L66.01 6.57Q65.62 6.33 65.18 6.17L65.18 6.17L65.18 6.17Q64.74 6.02 64.40 6.02L64.40 6.02L64.40 6.02Q63.90 6.02 63.62 6.65L63.62 6.65L63.62 6.65Q63.38 7.31 63.10 8.13L63.10 8.13L63.10 8.13Q62.83 8.95 62.56 9.85L62.56 9.85L62.56 9.85Q62.29 10.75 62.02 11.70L62.02 11.70L62.02 11.70Q61.75 12.64 61.52 13.52L61.52 13.52L61.52 13.52Q61.29 14.41 61.11 15.19L61.11 15.19L61.11 15.19Q60.93 15.97 60.82 16.58L60.82 16.58L60.83 16.55L60.83 16.55Q60.79 16.69 60.77 16.79L60.77 16.79L60.77 16.79Q60.76 16.90 60.76 17.00L60.76 17.00L60.76 17.00Q60.76 17.32 60.87 17.56L60.87 17.56L60.87 17.56Q60.98 17.79 61.18 17.99L61.18 17.99L61.46 18.27L61.45 18.27L61.45 18.27Q61.61 18.45 61.75 18.59L61.75 18.59L61.75 18.59Q61.89 18.72 62.05 18.86L62.05 18.86L62.05 18.84L62.05 18.84Q62.20 18.98 62.38 19.08L62.38 19.08L62.38 19.08Q62.57 19.18 62.89 19.18L62.89 19.18L62.89 19.18Q63.04 19.18 63.22 19.16L63.22 19.16L63.22 19.16Q63.39 19.14 63.60 19.07L63.60 19.07L63.59 19.07L63.59 19.07Q64.43 18.86 65.36 18.68L65.36 18.68L65.36 18.68Q66.29 18.49 67.17 18.28L67.17 18.28ZM74.55 18.28L74.56 18.27L74.56 18.27Q74.97 18.16 75.12 18.05L75.12 18.05L75.12 18.05Q75.28 17.93 75.28 17.68L75.28 17.68L75.28 17.68Q75.28 17.37 75.16 16.92L75.16 16.92L75.16 16.92Q75.04 16.46 74.82 16.10L74.82 16.10L74.83 16.11L74.83 16.11Q74.66 15.78 74.45 15.64L74.45 15.64L74.45 15.64Q74.23 15.50 73.88 15.50L73.88 15.50L73.88 15.50Q73.26 15.50 72.75 15.58L72.75 15.58L72.75 15.58Q72.24 15.67 71.71 15.75L71.71 15.75L71.71 15.75Q72.00 14.76 72.32 13.71L72.32 13.71L72.32 13.71Q72.65 12.67 72.97 11.66L72.97 11.66L72.97 11.66Q73.29 10.65 73.61 9.74L73.61 9.74L73.61 9.74Q73.93 8.82 74.21 8.06L74.21 8.06L74.20 8.08L74.20 8.08Q74.27 7.92 74.30 7.82L74.30 7.82L74.30 7.82Q74.33 7.71 74.33 7.60L74.33 7.60L74.33 7.60Q74.33 7.35 74.05 7.08L74.05 7.08L74.05 7.08Q73.78 6.80 73.39 6.57L73.39 6.57L73.39 6.57Q73.00 6.33 72.56 6.17L72.56 6.17L72.56 6.17Q72.11 6.02 71.78 6.02L71.78 6.02L71.78 6.02Q71.27 6.02 70.99 6.65L70.99 6.65L70.99 6.65Q70.76 7.31 70.48 8.13L70.48 8.13L70.48 8.13Q70.21 8.95 69.94 9.85L69.94 9.85L69.94 9.85Q69.66 10.75 69.40 11.70L69.40 11.70L69.40 11.70Q69.13 12.64 68.90 13.52L68.90 13.52L68.90 13.52Q68.67 14.41 68.49 15.19L68.49 15.19L68.49 15.19Q68.31 15.97 68.19 16.58L68.19 16.58L68.21 16.55L68.21 16.55Q68.17 16.69 68.15 16.79L68.15 16.79L68.15 16.79Q68.14 16.90 68.14 17.00L68.14 17.00L68.14 17.00Q68.14 17.32 68.25 17.56L68.25 17.56L68.25 17.56Q68.36 17.79 68.56 17.99L68.56 17.99L68.84 18.27L68.82 18.27L68.82 18.27Q68.99 18.45 69.13 18.59L69.13 18.59L69.13 18.59Q69.27 18.72 69.43 18.86L69.43 18.86L69.43 18.84L69.43 18.84Q69.58 18.98 69.76 19.08L69.76 19.08L69.76 19.08Q69.94 19.18 70.27 19.18L70.27 19.18L70.27 19.18Q70.42 19.18 70.59 19.16L70.59 19.16L70.59 19.16Q70.77 19.14 70.98 19.07L70.98 19.07L70.97 19.07L70.97 19.07Q71.81 18.86 72.74 18.68L72.74 18.68L72.74 18.68Q73.67 18.49 74.55 18.28L74.55 18.28Z"></path></g><!----><!----></svg>